<svg width="128" height="128" viewBox="0 0 128 128" fill="none" xmlns="http://www.w3.org/2000/svg">
<g clip-path="url(#clip0_28_6)">
<rect x="76.8782" y="72.3366" width="18.4531" height="10.1492" transform="rotate(44.6768 76.8782 72.3366)" fill="#0C2B42"/>
<path d="M111.88 101.81C114.327 104.122 114.393 107.996 112.025 110.39L108.189 114.27C105.822 116.664 101.948 116.641 99.6081 114.22L78.3388 92.2116C76.0732 89.867 76.095 86.1418 78.3874 83.8233L81.2452 80.9331C83.5376 78.6147 87.2624 78.5508 89.6324 80.7898L111.88 101.81Z" fill="#F58220" stroke="#0C2B42" stroke-width="2"/>
<path d="M74.9627 31.624C62.1293 18.9346 41.439 19.0513 28.7496 31.8847C16.0602 44.7182 16.1769 65.4085 29.0103 78.0979C41.8437 90.7873 62.534 90.6705 75.2234 77.8372C87.9128 65.0038 87.7961 44.3135 74.9627 31.624ZM33.8887 36.9662C43.7718 26.9709 59.886 26.88 69.8813 36.7631C79.8765 46.6463 79.9674 62.7605 70.0843 72.7557C60.2012 82.7509 44.0869 82.8419 34.0917 72.9588C24.0965 63.0757 24.0056 46.9614 33.8887 36.9662Z" fill="#0C2B42" stroke="#0C2B42" stroke-width="2"/>
<circle cx="51.9865" cy="54.8608" r="24.4513" transform="rotate(44.6768 51.9865 54.8608)" fill="white"/>
<rect x="87.376" y="82.7166" width="32.2941" height="4.61345" rx="2.30673" transform="rotate(44.6768 87.376 82.7166)" fill="white"/>
<path fill-rule="evenodd" clip-rule="evenodd" d="M71.5415 1.58537C66.0187 1.61653 61.5669 6.11886 61.598 11.6416L61.7142 32.2397C61.7454 37.7624 66.2477 42.2142 71.7705 42.1831L93.6029 42.0599L93.6257 46.1041C93.6308 46.995 94.7104 47.4351 95.3368 46.8016L100.061 42.0235L104.363 41.9992C109.886 41.9681 114.338 37.4657 114.307 31.943L114.191 11.3449C114.159 5.82217 109.657 1.37035 104.134 1.40151L71.5415 1.58537Z" fill="white"/>
<path d="M71.5415 1.58537L71.5471 2.58536L71.5415 1.58537ZM93.6029 42.0599L94.6029 42.0543L94.5973 41.0543L93.5973 41.0599L93.6029 42.0599ZM93.6257 46.1041L92.6258 46.1098L93.6257 46.1041ZM95.3368 46.8016L96.0479 47.5047L96.0479 47.5047L95.3368 46.8016ZM100.061 42.0235L100.056 41.0235L99.6415 41.0258L99.3502 41.3204L100.061 42.0235ZM104.134 1.40151L104.129 0.401521L104.134 1.40151ZM62.598 11.636C62.57 6.66549 66.5766 2.6134 71.5471 2.58536L71.5358 0.585388C65.4608 0.619659 60.5638 5.57222 60.598 11.6473L62.598 11.636ZM62.7142 32.234L62.598 11.636L60.598 11.6473L60.7142 32.2453L62.7142 32.234ZM71.7648 41.1831C66.7943 41.2111 62.7422 37.2045 62.7142 32.234L60.7142 32.2453C60.7485 38.3203 65.7011 43.2173 71.7761 43.1831L71.7648 41.1831ZM93.5973 41.0599L71.7648 41.1831L71.7761 43.1831L93.6086 43.0599L93.5973 41.0599ZM92.6029 42.0656L92.6258 46.1098L94.6257 46.0985L94.6029 42.0543L92.6029 42.0656ZM92.6258 46.1098C92.6358 47.8916 94.7951 48.7717 96.0479 47.5047L94.6257 46.0985L94.6257 46.0985L92.6258 46.1098ZM96.0479 47.5047L100.772 42.7266L99.3502 41.3204L94.6257 46.0985L96.0479 47.5047ZM104.358 40.9992L100.056 41.0235L100.067 43.0235L104.369 42.9992L104.358 40.9992ZM113.307 31.9486C113.335 36.9191 109.328 40.9712 104.358 40.9992L104.369 42.9992C110.444 42.9649 115.341 38.0124 115.307 31.9373L113.307 31.9486ZM113.191 11.3506L113.307 31.9486L115.307 31.9373L115.191 11.3393L113.191 11.3506ZM104.14 2.40149C109.11 2.37345 113.162 6.38009 113.191 11.3506L115.191 11.3393C115.156 5.26426 110.204 0.36725 104.129 0.401521L104.14 2.40149ZM71.5471 2.58536L104.14 2.40149L104.129 0.401521L71.5358 0.585388L71.5471 2.58536Z" fill="#0C2B42"/>
<rect width="26.7571" height="4.61329" rx="2.30664" transform="matrix(-0.703107 0.711084 0.711084 0.703107 96.1638 11.1156)" fill="#BD3838"/>
<rect width="26.7571" height="4.61329" rx="2.30664" transform="matrix(-0.703107 0.711084 0.711084 0.703107 96.1638 11.1156)" fill="#BD3838"/>
<rect width="26.7571" height="4.61329" rx="2.30664" transform="matrix(-0.703107 0.711084 0.711084 0.703107 96.1638 11.1156)" fill="#BD3838"/>
<rect width="26.7571" height="4.61329" rx="2.30664" transform="matrix(-0.703107 0.711084 0.711084 0.703107 96.1638 11.1156)" fill="#BD3838"/>
<rect width="26.7571" height="4.61329" rx="2.30664" transform="matrix(0.711085 0.703107 0.703107 -0.711085 77.2616 14.4843)" fill="#BD3838"/>
<rect width="26.7571" height="4.61329" rx="2.30664" transform="matrix(0.711085 0.703107 0.703107 -0.711085 77.2616 14.4843)" fill="#BD3838"/>
<rect width="26.7571" height="4.61329" rx="2.30664" transform="matrix(0.711085 0.703107 0.703107 -0.711085 77.2616 14.4843)" fill="#BD3838"/>
<rect width="26.7571" height="4.61329" rx="2.30664" transform="matrix(0.711085 0.703107 0.703107 -0.711085 77.2616 14.4843)" fill="#BD3838"/>
<ellipse cx="31.8328" cy="3.22941" rx="31.8328" ry="3.22941" transform="matrix(-0.999984 0.00564124 0.00564124 0.999984 89.8933 120.511)" fill="#DDDEE1"/>
</g>
<defs>
<clipPath id="clip0_28_6">
<rect width="128" height="128" fill="white"/>
</clipPath>
</defs>
</svg>
